/* XPM */
static char * docked_xpm[] = {
"16 16 5 1",
" 	c None",
".	c #000000",
"+	c #333333",
"@	c #000080",
"#	c #FFFFFF",
"                ",
"              . ",
"             .  ",
"          . .   ",
"+@@@@@@@@@..    ",
"+         ...   ",
"+ ++++++++ .    ",
"+ +@@@@@@@ .    ",
"+ +++++++. .    ",
"+ +######. .    ",
"+ +######. .    ",
"+ +######. .    ",
"+ +######. .    ",
"+ +....... .    ",
"+          .    ",
"+...........    "};
