/* XPM */
static char * minimized_xpm[] = {
"16 16 4 1",
" 	c None",
".	c #333333",
"+	c #000080",
"@	c #000000",
"................",
".++++++++++++++@",
"...............@",
".            @ @",
".           @  @",
".          @   @",
".       @ @    @",
".       @@     @",
".       @@@    @",
".              @",
".              @",
". ............ @",
". .+++++++++++ @",
". ............ @",
".              @",
".@@@@@@@@@@@@@@@"};
