/* XPM */
static char * title_xpm[] = {
"84 19 10 1",
" 	c None",
".	c #FCFCFC",
"+	c #FBFBFB",
"@	c #FAFAFA",
"#	c #F4F4F4",
"$	c #F8F8F8",
"%	c #F5F5F5",
"&	c #F6F6F6",
"*	c #F7F7F7",
"=	c #F9F9F9",
".......................................................+..+@@@+@@@+@++...@+.........",
".####$.####$.####$.####$.%###%.%####.$####.$####.$####$$##&&**#&$*$@$$@=$=+@@$......",
".####$.####$.####%.####%.#####.%####.%####.$####.$####$&####*&#%&&*$&&@=*$+@@=......",
".####$.####$.####%.####%.####%.%####.%####.$####.$####$&####*&#%%%*$&&@$&$+@@=......",
"$####$.####$.####%.####%.#####.#####.%####.$####.$####$&####*&#&&%&$&&@=*$+@@$......",
".%%%%$.%%%%$.$%%%$.$%%%$.$%%%$.$%%%$.$%%%$.$%%%%.$%%%%$&%###$*%&*&*@&&@=$$+++$......",
".......................................................+..@+.@.+@@+++....+..........",
".####$.####$.%###$.%###$.%###$.$###%.$###%.$####.$####$$##&&$$*=@=@++@..++...+......",
".####$.####$.####%.####%.#####.%####.%####.$####.$####$*%%&*$$=@@@+.++..............",
".####$.####$.####%.####%.####%.%####.%####.$####.$####$$%%&&$$$@==@+@@...+..........",
"$####$.####$.####%.####%.#####.#####.%####.$####$$####$$&%%&$$&@=$@++@+..@...+......",
".####$.####$.%###$.%###$.$###$.$###%.$###%.$####.$#%&%$$$$$@+@@..@+..@+..@...@......",
"..................................................$.+@+++@+++@@+.@@..@+..@..........",
".####$.####$.%###$.%###$.%###$.$###%.$###%.$####.$#*$&=$$&&$=$&==$$@@$@@+$@+.$+.....",
"$####$.####$.####%.####%.#####.#####.%####.$####$$#&%#$*&##&$*&$$&&$@*$=+$@+.$+.....",
".####$.####$.####%.####%.####%.%####.%####.$####$$#&%#$*&##&$*%$$*&$=$$=+$@+.@+.....",
".####$.####$.####%.####%.#####.%####.%####.$####$$#&%#$$&##*$*%$$$&=@==@+=@..@@.....",
".####$.####$.%###$.%###$.%###%.$###%.$###%.$####.$#&%#$$*##$$$&@==$+@@@.............",
"...................................................++.......+@...+.................."};
