/* XPM */
static char * title_xpm[] = {
"84 19 13 1",
" 	c #8C9FD9",
".	c #8B9FD8",
"+	c #8CA0D9",
"@	c #8DA0D9",
"#	c #8A9ED8",
"$	c #899DD8",
"%	c #889DD7",
"&	c #889CD7",
"*	c #879CD7",
"=	c #879BD7",
"-	c #869BD7",
";	c #859AD6",
">	c #8499D6",
" .... +.... +.... +.....+.....@.....+.....+ ..## .###$##$$%%$%&**=**------;;;;;>>>>>",
"#>>>>%#>>>>&.;>>>=.;>>>=.->>>-.->>>;.=>>>;.*>>>>#*>>>>$*>>>>*=>>>>-->>>>;;>>>>>>>>>>",
"#>>>>%#>>>>*.>>>>-.;>>>-.;>>>;.->>>;.->>>>.=>>>>#*>>>>%&>>>>*=>>>>-->>>>;;>>>>>>>>>>",
"#>>>>%#>>>>*.>>>>-.;>>>-.;>>>-.->>>;.->>>;.=>>>>#*>>>>%&>>>>*=>>>>-->>>>;;>>>>>>>>>>",
"$>>>>&#>>>>*.>>>>-.>>>>-.;>>>;.;>>>>.->>>>.=>>>>#=>>>>%*>>>>==>>>>;->>>>;;>>>>>>>>>>",
"#----$.----$.=---&.=---&.=---*.&---=.&---=.%----#%----$%-;;;&*;;;;--;;;>;;>>>>>>>>>>",
"+.... +.... +.... +.... +.....+.....+ ....@ .... .######$$%%$%&&*===------;;;;;>>>>>",
"#;;;;%.;;;;%.-;;;*.-;;;*.-;;;=.=;;;-.*;;;-.&;;;;#&;;;;$*;>>>*=>;>>-->>>>;;>>>>>>>>>>",
"#>>>>%#>>>>*.>>>>-.>>>>-.;>>>;.->>>;.->>>>.=>>>>#*>>>>%*>>>>==>>>>-->>>>;;>>>>>>>>>>",
"#>>>>%#>>>>*.>>>>-.;>>>-.;>>>-.->>>;.->>>;.=>>>>#*>>>>%&>>>>==>>>>-->>>>;;>>>>>>>>>>",
"$>>>>&#>>>>*#>>>>-.>>>>-.;>>>;.;>>>>.->>>>#=>>>>$=>>>>%*>>>>==>>>>;->>>>;;>>>>>>>>>>",
"#;;;;$.;;;;%.-;;;*.-;;;*.=;;;=.*;;;- &;;;-.&;;;;#&;;;;%&;;;;*=>;>>-->>>>;;>>>>>>>>>>",
"+....+@.... +.... +.... @ ... @ ....@ ....+ .... .$##$#$$$%%$%***=*=-----;;;;;;>>>>>",
"#;;;;$.;;;;%.-;;;*.-;;;*.-;;;=.=;;;- *;;;-.&;;;;#&;;;;$*;;;;*=;;>>-->>>>;;>>>>>>>>>>",
"$>>>>&#>>>>*#>>>>-.>>>>-.;>>>;.;>>>>.->>>>#=>>>>$=>>>>%*>>>>==>>>>;->>>>;;>>>>>>>>>>",
"#>>>>%#>>>>*.>>>>-.;>>>-.;>>>-.->>>;.->>>;#=>>>>$=>>>>%*>>>>==>>>>-->>>>;;>>>>>>>>>>",
"#>>>>%#>>>>*.>>>>-.>>>>-.;>>>;.->>>>.->>>>#=>>>>$=>>>>%*>>>>==>>>>-->>>>;;>>>>>>>>>>",
"#;;;;$.;;;;%.-;;;*.-;;;=.-;;;-.=;;;-.=;;;-.&;;;;#*;;;;%*;;;>*=>>>>-->>>>;;>>>>>>>>>>",
"+....++.... +.... +.... @.....+.....+..... ...##.####$##$$%&$%**====-----;;;;;>>>>>>"};
