/* XPM */
static char * undocked_xpm[] = {
"16 16 5 1",
" 	c None",
".	c #333333",
"+	c #000080",
"@	c #000000",
"#	c #FFFFFF",
"    ............",
"    .+++++++++++",
"    ...........@",
".....##########@",
".+++.##########@",
".....##########@",
".   .##########@",
".   .##########@",
".   .##########@",
".   @@@########@",
".   .@@@@@@@@@@@",
".   @ @    @    ",
".  @       @    ",
". @        @    ",
".          @    ",
".@@@@@@@@@@@    "};
